G75*
%MOIN*%
%OFA0B0*%
%FSLAX25Y25*%
%IPPOS*%
%LPD*%
%AMOC8*
5,1,8,0,0,1.08239X$1,22.5*
%
%ADD10C,0.00000*%
D10*
X0004296Y0005979D02*
X0046341Y0005979D01*
X0046341Y0059979D01*
X0046322Y0060122D01*
X0046300Y0060264D01*
X0046274Y0060406D01*
X0046244Y0060547D01*
X0046210Y0060687D01*
X0046173Y0060826D01*
X0046132Y0060964D01*
X0046087Y0061101D01*
X0046039Y0061237D01*
X0045987Y0061371D01*
X0045932Y0061504D01*
X0045873Y0061635D01*
X0045810Y0061765D01*
X0045744Y0061893D01*
X0045675Y0062020D01*
X0045602Y0062144D01*
X0045526Y0062266D01*
X0045447Y0062387D01*
X0045365Y0062505D01*
X0045279Y0062621D01*
X0045191Y0062735D01*
X0045099Y0062846D01*
X0045005Y0062955D01*
X0044908Y0063061D01*
X0044808Y0063165D01*
X0044705Y0063266D01*
X0044599Y0063364D01*
X0044491Y0063459D01*
X0044381Y0063551D01*
X0044268Y0063641D01*
X0044153Y0063727D01*
X0044035Y0063810D01*
X0043915Y0063891D01*
X0043793Y0063967D01*
X0043670Y0064041D01*
X0043544Y0064111D01*
X0043416Y0064178D01*
X0043287Y0064242D01*
X0043156Y0064302D01*
X0043024Y0064358D01*
X0042890Y0064411D01*
X0042754Y0064461D01*
X0042618Y0064507D01*
X0042480Y0064549D01*
X0042341Y0064587D01*
X0042201Y0064622D01*
X0042061Y0064653D01*
X0041919Y0064680D01*
X0041777Y0064704D01*
X0041634Y0064724D01*
X0041491Y0064739D01*
X0041348Y0064752D01*
X0041204Y0064760D01*
X0041060Y0064764D01*
X0040916Y0064765D01*
X0040772Y0064762D01*
X0040628Y0064754D01*
X0040484Y0064744D01*
X0040341Y0064729D01*
X0009816Y0064729D01*
X0009674Y0064737D01*
X0009533Y0064742D01*
X0009391Y0064743D01*
X0009249Y0064740D01*
X0009107Y0064733D01*
X0008966Y0064722D01*
X0008824Y0064707D01*
X0008684Y0064688D01*
X0008544Y0064666D01*
X0008404Y0064640D01*
X0008266Y0064609D01*
X0008128Y0064575D01*
X0007991Y0064538D01*
X0007855Y0064496D01*
X0007721Y0064451D01*
X0007588Y0064402D01*
X0007456Y0064349D01*
X0007326Y0064293D01*
X0007197Y0064233D01*
X0007070Y0064170D01*
X0006945Y0064103D01*
X0006822Y0064033D01*
X0006700Y0063959D01*
X0006581Y0063882D01*
X0006464Y0063802D01*
X0006349Y0063719D01*
X0006237Y0063632D01*
X0006127Y0063543D01*
X0006019Y0063450D01*
X0005914Y0063355D01*
X0005812Y0063256D01*
X0005712Y0063155D01*
X0005616Y0063052D01*
X0005522Y0062945D01*
X0005431Y0062836D01*
X0005343Y0062725D01*
X0005258Y0062611D01*
X0005177Y0062495D01*
X0005098Y0062376D01*
X0005023Y0062256D01*
X0004952Y0062133D01*
X0004884Y0062009D01*
X0004819Y0061883D01*
X0004757Y0061755D01*
X0004700Y0061625D01*
X0004645Y0061494D01*
X0004595Y0061362D01*
X0004548Y0061228D01*
X0004505Y0061092D01*
X0004465Y0060956D01*
X0004430Y0060819D01*
X0004398Y0060681D01*
X0004370Y0060541D01*
X0004346Y0060402D01*
X0004325Y0060261D01*
X0004309Y0060120D01*
X0004296Y0059979D01*
X0004296Y0005979D01*
X0024582Y0054522D02*
X0024584Y0054584D01*
X0024590Y0054647D01*
X0024600Y0054708D01*
X0024614Y0054769D01*
X0024631Y0054829D01*
X0024652Y0054888D01*
X0024678Y0054945D01*
X0024706Y0055000D01*
X0024738Y0055054D01*
X0024774Y0055105D01*
X0024812Y0055155D01*
X0024854Y0055201D01*
X0024898Y0055245D01*
X0024946Y0055286D01*
X0024995Y0055324D01*
X0025047Y0055358D01*
X0025101Y0055389D01*
X0025157Y0055417D01*
X0025215Y0055441D01*
X0025274Y0055462D01*
X0025334Y0055478D01*
X0025395Y0055491D01*
X0025457Y0055500D01*
X0025519Y0055505D01*
X0025582Y0055506D01*
X0025644Y0055503D01*
X0025706Y0055496D01*
X0025768Y0055485D01*
X0025828Y0055470D01*
X0025888Y0055452D01*
X0025946Y0055430D01*
X0026003Y0055404D01*
X0026058Y0055374D01*
X0026111Y0055341D01*
X0026162Y0055305D01*
X0026210Y0055266D01*
X0026256Y0055223D01*
X0026299Y0055178D01*
X0026339Y0055130D01*
X0026376Y0055080D01*
X0026410Y0055027D01*
X0026441Y0054973D01*
X0026467Y0054917D01*
X0026491Y0054859D01*
X0026510Y0054799D01*
X0026526Y0054739D01*
X0026538Y0054677D01*
X0026546Y0054616D01*
X0026550Y0054553D01*
X0026550Y0054491D01*
X0026546Y0054428D01*
X0026538Y0054367D01*
X0026526Y0054305D01*
X0026510Y0054245D01*
X0026491Y0054185D01*
X0026467Y0054127D01*
X0026441Y0054071D01*
X0026410Y0054017D01*
X0026376Y0053964D01*
X0026339Y0053914D01*
X0026299Y0053866D01*
X0026256Y0053821D01*
X0026210Y0053778D01*
X0026162Y0053739D01*
X0026111Y0053703D01*
X0026058Y0053670D01*
X0026003Y0053640D01*
X0025946Y0053614D01*
X0025888Y0053592D01*
X0025828Y0053574D01*
X0025768Y0053559D01*
X0025706Y0053548D01*
X0025644Y0053541D01*
X0025582Y0053538D01*
X0025519Y0053539D01*
X0025457Y0053544D01*
X0025395Y0053553D01*
X0025334Y0053566D01*
X0025274Y0053582D01*
X0025215Y0053603D01*
X0025157Y0053627D01*
X0025101Y0053655D01*
X0025047Y0053686D01*
X0024995Y0053720D01*
X0024946Y0053758D01*
X0024898Y0053799D01*
X0024854Y0053843D01*
X0024812Y0053889D01*
X0024774Y0053939D01*
X0024738Y0053990D01*
X0024706Y0054044D01*
X0024678Y0054099D01*
X0024652Y0054156D01*
X0024631Y0054215D01*
X0024614Y0054275D01*
X0024600Y0054336D01*
X0024590Y0054397D01*
X0024584Y0054460D01*
X0024582Y0054522D01*
X0005816Y0056979D02*
X0005818Y0057133D01*
X0005824Y0057288D01*
X0005834Y0057442D01*
X0005848Y0057596D01*
X0005866Y0057749D01*
X0005887Y0057902D01*
X0005913Y0058055D01*
X0005943Y0058206D01*
X0005976Y0058357D01*
X0006014Y0058507D01*
X0006055Y0058656D01*
X0006100Y0058804D01*
X0006149Y0058950D01*
X0006202Y0059096D01*
X0006258Y0059239D01*
X0006318Y0059382D01*
X0006382Y0059522D01*
X0006449Y0059662D01*
X0006520Y0059799D01*
X0006594Y0059934D01*
X0006672Y0060068D01*
X0006753Y0060199D01*
X0006838Y0060328D01*
X0006926Y0060456D01*
X0007017Y0060580D01*
X0007111Y0060703D01*
X0007209Y0060823D01*
X0007309Y0060940D01*
X0007413Y0061055D01*
X0007519Y0061167D01*
X0007628Y0061276D01*
X0007740Y0061382D01*
X0007855Y0061486D01*
X0007972Y0061586D01*
X0008092Y0061684D01*
X0008215Y0061778D01*
X0008339Y0061869D01*
X0008467Y0061957D01*
X0008596Y0062042D01*
X0008727Y0062123D01*
X0008861Y0062201D01*
X0008996Y0062275D01*
X0009133Y0062346D01*
X0009273Y0062413D01*
X0009413Y0062477D01*
X0009556Y0062537D01*
X0009699Y0062593D01*
X0009845Y0062646D01*
X0009991Y0062695D01*
X0010139Y0062740D01*
X0010288Y0062781D01*
X0010438Y0062819D01*
X0010589Y0062852D01*
X0010740Y0062882D01*
X0010893Y0062908D01*
X0011046Y0062929D01*
X0011199Y0062947D01*
X0011353Y0062961D01*
X0011507Y0062971D01*
X0011662Y0062977D01*
X0011816Y0062979D01*
X0011970Y0062977D01*
X0012125Y0062971D01*
X0012279Y0062961D01*
X0012433Y0062947D01*
X0012586Y0062929D01*
X0012739Y0062908D01*
X0012892Y0062882D01*
X0013043Y0062852D01*
X0013194Y0062819D01*
X0013344Y0062781D01*
X0013493Y0062740D01*
X0013641Y0062695D01*
X0013787Y0062646D01*
X0013933Y0062593D01*
X0014076Y0062537D01*
X0014219Y0062477D01*
X0014359Y0062413D01*
X0014499Y0062346D01*
X0014636Y0062275D01*
X0014771Y0062201D01*
X0014905Y0062123D01*
X0015036Y0062042D01*
X0015165Y0061957D01*
X0015293Y0061869D01*
X0015417Y0061778D01*
X0015540Y0061684D01*
X0015660Y0061586D01*
X0015777Y0061486D01*
X0015892Y0061382D01*
X0016004Y0061276D01*
X0016113Y0061167D01*
X0016219Y0061055D01*
X0016323Y0060940D01*
X0016423Y0060823D01*
X0016521Y0060703D01*
X0016615Y0060580D01*
X0016706Y0060456D01*
X0016794Y0060328D01*
X0016879Y0060199D01*
X0016960Y0060068D01*
X0017038Y0059934D01*
X0017112Y0059799D01*
X0017183Y0059662D01*
X0017250Y0059522D01*
X0017314Y0059382D01*
X0017374Y0059239D01*
X0017430Y0059096D01*
X0017483Y0058950D01*
X0017532Y0058804D01*
X0017577Y0058656D01*
X0017618Y0058507D01*
X0017656Y0058357D01*
X0017689Y0058206D01*
X0017719Y0058055D01*
X0017745Y0057902D01*
X0017766Y0057749D01*
X0017784Y0057596D01*
X0017798Y0057442D01*
X0017808Y0057288D01*
X0017814Y0057133D01*
X0017816Y0056979D01*
X0017814Y0056825D01*
X0017808Y0056670D01*
X0017798Y0056516D01*
X0017784Y0056362D01*
X0017766Y0056209D01*
X0017745Y0056056D01*
X0017719Y0055903D01*
X0017689Y0055752D01*
X0017656Y0055601D01*
X0017618Y0055451D01*
X0017577Y0055302D01*
X0017532Y0055154D01*
X0017483Y0055008D01*
X0017430Y0054862D01*
X0017374Y0054719D01*
X0017314Y0054576D01*
X0017250Y0054436D01*
X0017183Y0054296D01*
X0017112Y0054159D01*
X0017038Y0054024D01*
X0016960Y0053890D01*
X0016879Y0053759D01*
X0016794Y0053630D01*
X0016706Y0053502D01*
X0016615Y0053378D01*
X0016521Y0053255D01*
X0016423Y0053135D01*
X0016323Y0053018D01*
X0016219Y0052903D01*
X0016113Y0052791D01*
X0016004Y0052682D01*
X0015892Y0052576D01*
X0015777Y0052472D01*
X0015660Y0052372D01*
X0015540Y0052274D01*
X0015417Y0052180D01*
X0015293Y0052089D01*
X0015165Y0052001D01*
X0015036Y0051916D01*
X0014905Y0051835D01*
X0014771Y0051757D01*
X0014636Y0051683D01*
X0014499Y0051612D01*
X0014359Y0051545D01*
X0014219Y0051481D01*
X0014076Y0051421D01*
X0013933Y0051365D01*
X0013787Y0051312D01*
X0013641Y0051263D01*
X0013493Y0051218D01*
X0013344Y0051177D01*
X0013194Y0051139D01*
X0013043Y0051106D01*
X0012892Y0051076D01*
X0012739Y0051050D01*
X0012586Y0051029D01*
X0012433Y0051011D01*
X0012279Y0050997D01*
X0012125Y0050987D01*
X0011970Y0050981D01*
X0011816Y0050979D01*
X0011662Y0050981D01*
X0011507Y0050987D01*
X0011353Y0050997D01*
X0011199Y0051011D01*
X0011046Y0051029D01*
X0010893Y0051050D01*
X0010740Y0051076D01*
X0010589Y0051106D01*
X0010438Y0051139D01*
X0010288Y0051177D01*
X0010139Y0051218D01*
X0009991Y0051263D01*
X0009845Y0051312D01*
X0009699Y0051365D01*
X0009556Y0051421D01*
X0009413Y0051481D01*
X0009273Y0051545D01*
X0009133Y0051612D01*
X0008996Y0051683D01*
X0008861Y0051757D01*
X0008727Y0051835D01*
X0008596Y0051916D01*
X0008467Y0052001D01*
X0008339Y0052089D01*
X0008215Y0052180D01*
X0008092Y0052274D01*
X0007972Y0052372D01*
X0007855Y0052472D01*
X0007740Y0052576D01*
X0007628Y0052682D01*
X0007519Y0052791D01*
X0007413Y0052903D01*
X0007309Y0053018D01*
X0007209Y0053135D01*
X0007111Y0053255D01*
X0007017Y0053378D01*
X0006926Y0053502D01*
X0006838Y0053630D01*
X0006753Y0053759D01*
X0006672Y0053890D01*
X0006594Y0054024D01*
X0006520Y0054159D01*
X0006449Y0054296D01*
X0006382Y0054436D01*
X0006318Y0054576D01*
X0006258Y0054719D01*
X0006202Y0054862D01*
X0006149Y0055008D01*
X0006100Y0055154D01*
X0006055Y0055302D01*
X0006014Y0055451D01*
X0005976Y0055601D01*
X0005943Y0055752D01*
X0005913Y0055903D01*
X0005887Y0056056D01*
X0005866Y0056209D01*
X0005848Y0056362D01*
X0005834Y0056516D01*
X0005824Y0056670D01*
X0005818Y0056825D01*
X0005816Y0056979D01*
X0032816Y0056979D02*
X0032818Y0057133D01*
X0032824Y0057288D01*
X0032834Y0057442D01*
X0032848Y0057596D01*
X0032866Y0057749D01*
X0032887Y0057902D01*
X0032913Y0058055D01*
X0032943Y0058206D01*
X0032976Y0058357D01*
X0033014Y0058507D01*
X0033055Y0058656D01*
X0033100Y0058804D01*
X0033149Y0058950D01*
X0033202Y0059096D01*
X0033258Y0059239D01*
X0033318Y0059382D01*
X0033382Y0059522D01*
X0033449Y0059662D01*
X0033520Y0059799D01*
X0033594Y0059934D01*
X0033672Y0060068D01*
X0033753Y0060199D01*
X0033838Y0060328D01*
X0033926Y0060456D01*
X0034017Y0060580D01*
X0034111Y0060703D01*
X0034209Y0060823D01*
X0034309Y0060940D01*
X0034413Y0061055D01*
X0034519Y0061167D01*
X0034628Y0061276D01*
X0034740Y0061382D01*
X0034855Y0061486D01*
X0034972Y0061586D01*
X0035092Y0061684D01*
X0035215Y0061778D01*
X0035339Y0061869D01*
X0035467Y0061957D01*
X0035596Y0062042D01*
X0035727Y0062123D01*
X0035861Y0062201D01*
X0035996Y0062275D01*
X0036133Y0062346D01*
X0036273Y0062413D01*
X0036413Y0062477D01*
X0036556Y0062537D01*
X0036699Y0062593D01*
X0036845Y0062646D01*
X0036991Y0062695D01*
X0037139Y0062740D01*
X0037288Y0062781D01*
X0037438Y0062819D01*
X0037589Y0062852D01*
X0037740Y0062882D01*
X0037893Y0062908D01*
X0038046Y0062929D01*
X0038199Y0062947D01*
X0038353Y0062961D01*
X0038507Y0062971D01*
X0038662Y0062977D01*
X0038816Y0062979D01*
X0038970Y0062977D01*
X0039125Y0062971D01*
X0039279Y0062961D01*
X0039433Y0062947D01*
X0039586Y0062929D01*
X0039739Y0062908D01*
X0039892Y0062882D01*
X0040043Y0062852D01*
X0040194Y0062819D01*
X0040344Y0062781D01*
X0040493Y0062740D01*
X0040641Y0062695D01*
X0040787Y0062646D01*
X0040933Y0062593D01*
X0041076Y0062537D01*
X0041219Y0062477D01*
X0041359Y0062413D01*
X0041499Y0062346D01*
X0041636Y0062275D01*
X0041771Y0062201D01*
X0041905Y0062123D01*
X0042036Y0062042D01*
X0042165Y0061957D01*
X0042293Y0061869D01*
X0042417Y0061778D01*
X0042540Y0061684D01*
X0042660Y0061586D01*
X0042777Y0061486D01*
X0042892Y0061382D01*
X0043004Y0061276D01*
X0043113Y0061167D01*
X0043219Y0061055D01*
X0043323Y0060940D01*
X0043423Y0060823D01*
X0043521Y0060703D01*
X0043615Y0060580D01*
X0043706Y0060456D01*
X0043794Y0060328D01*
X0043879Y0060199D01*
X0043960Y0060068D01*
X0044038Y0059934D01*
X0044112Y0059799D01*
X0044183Y0059662D01*
X0044250Y0059522D01*
X0044314Y0059382D01*
X0044374Y0059239D01*
X0044430Y0059096D01*
X0044483Y0058950D01*
X0044532Y0058804D01*
X0044577Y0058656D01*
X0044618Y0058507D01*
X0044656Y0058357D01*
X0044689Y0058206D01*
X0044719Y0058055D01*
X0044745Y0057902D01*
X0044766Y0057749D01*
X0044784Y0057596D01*
X0044798Y0057442D01*
X0044808Y0057288D01*
X0044814Y0057133D01*
X0044816Y0056979D01*
X0044814Y0056825D01*
X0044808Y0056670D01*
X0044798Y0056516D01*
X0044784Y0056362D01*
X0044766Y0056209D01*
X0044745Y0056056D01*
X0044719Y0055903D01*
X0044689Y0055752D01*
X0044656Y0055601D01*
X0044618Y0055451D01*
X0044577Y0055302D01*
X0044532Y0055154D01*
X0044483Y0055008D01*
X0044430Y0054862D01*
X0044374Y0054719D01*
X0044314Y0054576D01*
X0044250Y0054436D01*
X0044183Y0054296D01*
X0044112Y0054159D01*
X0044038Y0054024D01*
X0043960Y0053890D01*
X0043879Y0053759D01*
X0043794Y0053630D01*
X0043706Y0053502D01*
X0043615Y0053378D01*
X0043521Y0053255D01*
X0043423Y0053135D01*
X0043323Y0053018D01*
X0043219Y0052903D01*
X0043113Y0052791D01*
X0043004Y0052682D01*
X0042892Y0052576D01*
X0042777Y0052472D01*
X0042660Y0052372D01*
X0042540Y0052274D01*
X0042417Y0052180D01*
X0042293Y0052089D01*
X0042165Y0052001D01*
X0042036Y0051916D01*
X0041905Y0051835D01*
X0041771Y0051757D01*
X0041636Y0051683D01*
X0041499Y0051612D01*
X0041359Y0051545D01*
X0041219Y0051481D01*
X0041076Y0051421D01*
X0040933Y0051365D01*
X0040787Y0051312D01*
X0040641Y0051263D01*
X0040493Y0051218D01*
X0040344Y0051177D01*
X0040194Y0051139D01*
X0040043Y0051106D01*
X0039892Y0051076D01*
X0039739Y0051050D01*
X0039586Y0051029D01*
X0039433Y0051011D01*
X0039279Y0050997D01*
X0039125Y0050987D01*
X0038970Y0050981D01*
X0038816Y0050979D01*
X0038662Y0050981D01*
X0038507Y0050987D01*
X0038353Y0050997D01*
X0038199Y0051011D01*
X0038046Y0051029D01*
X0037893Y0051050D01*
X0037740Y0051076D01*
X0037589Y0051106D01*
X0037438Y0051139D01*
X0037288Y0051177D01*
X0037139Y0051218D01*
X0036991Y0051263D01*
X0036845Y0051312D01*
X0036699Y0051365D01*
X0036556Y0051421D01*
X0036413Y0051481D01*
X0036273Y0051545D01*
X0036133Y0051612D01*
X0035996Y0051683D01*
X0035861Y0051757D01*
X0035727Y0051835D01*
X0035596Y0051916D01*
X0035467Y0052001D01*
X0035339Y0052089D01*
X0035215Y0052180D01*
X0035092Y0052274D01*
X0034972Y0052372D01*
X0034855Y0052472D01*
X0034740Y0052576D01*
X0034628Y0052682D01*
X0034519Y0052791D01*
X0034413Y0052903D01*
X0034309Y0053018D01*
X0034209Y0053135D01*
X0034111Y0053255D01*
X0034017Y0053378D01*
X0033926Y0053502D01*
X0033838Y0053630D01*
X0033753Y0053759D01*
X0033672Y0053890D01*
X0033594Y0054024D01*
X0033520Y0054159D01*
X0033449Y0054296D01*
X0033382Y0054436D01*
X0033318Y0054576D01*
X0033258Y0054719D01*
X0033202Y0054862D01*
X0033149Y0055008D01*
X0033100Y0055154D01*
X0033055Y0055302D01*
X0033014Y0055451D01*
X0032976Y0055601D01*
X0032943Y0055752D01*
X0032913Y0055903D01*
X0032887Y0056056D01*
X0032866Y0056209D01*
X0032848Y0056362D01*
X0032834Y0056516D01*
X0032824Y0056670D01*
X0032818Y0056825D01*
X0032816Y0056979D01*
M02*
